<svg width="148" height="148" viewBox="0 0 148 148" fill="none" xmlns="http://www.w3.org/2000/svg">
<path d="M99.9688 7.06934C91.8643 17.8329 55.0322 46.844 55.0322 56C55.0322 58.8028 54.1294 62.3306 52.6035 66.0547C52.8975 66.0197 53.1966 66 53.5 66C57.4425 66 60.6713 69.0423 60.9736 72.9072L133.233 4.15234C142.071 9.37203 148 18.9928 148 30V118C148 134.569 134.569 148 118 148H40.5674L50.418 138.626C58.2132 128.024 95.5039 98.7125 95.5039 89.5C95.5039 86.923 96.2649 83.7321 97.5732 80.3398C96.635 80.7621 95.5956 81 94.5 81C90.8537 81 87.8158 78.3978 87.1406 74.9492L14.7451 143.835C5.91944 138.612 0 128.998 0 118V30C0 13.4315 13.4315 0 30 0H107.399L99.9688 7.06934ZM46.7598 76.793C44.8041 79.6509 42.6222 82.3147 40.3457 84.5186L40.7324 84.9258L35.8652 92.7725L43.9609 88.3184L44.3496 88.7266L52.5361 80.9355C49.9909 80.6089 47.8447 79.0094 46.7598 76.793ZM104.402 59.5234L103.904 59L96.3135 66.2217C99.0312 66.8966 101.161 69.0535 101.8 71.7852C103.621 68.7506 105.729 65.8232 107.983 63.2871L107.486 62.7646L112.178 55.2197L104.402 59.5234Z" fill="white"/>
</svg>
